{
    "asset" : {
        "generator" : "Khronos glTF Blender I/O v1.7.33",
        "version" : "2.0"
    },
    "scene" : 0,
    "scenes" : [
        {
            "name" : "Scene",
            "nodes" : [
                0,
                1,
                2,
                3
            ]
        }
    ],
    "nodes" : [
        {
            "mesh" : 0,
            "name" : "Cube.067",
            "rotation" : [
                0.12371358275413513,
                0.507694661617279,
                -0.012209495529532433,
                0.8525210022926331
            ],
            "scale" : [
                6.966135501861572,
                0.8321442604064941,
                6.966134548187256
            ],
            "translation" : [
                -0.8026333451271057,
                26.951353073120117,
                -2.4495434761047363
            ]
        },
        {
            "mesh" : 1,
            "name" : "NurbsPath.002",
            "rotation" : [
                0.12371358275413513,
                0.507694661617279,
                -0.012209495529532433,
                0.8525210022926331
            ],
            "scale" : [
                6.966135501861572,
                6.9661359786987305,
                6.966134548187256
            ],
            "translation" : [
                -4.794454097747803,
                22.496097564697266,
                2.9448318481445312
            ]
        },
        {
            "mesh" : 2,
            "name" : "NurbsPath.003",
            "rotation" : [
                -0.2715156674385071,
                0.44647321105003357,
                -0.6114567518234253,
                0.5941900014877319
            ],
            "scale" : [
                1.8511580228805542,
                1.8511580228805542,
                1.8511580228805542
            ],
            "translation" : [
                -4.843829154968262,
                22.490615844726562,
                3.007998466491699
            ]
        },
        {
            "mesh" : 3,
            "name" : "Sphere.004",
            "scale" : [
                0.45898061990737915,
                0.45898061990737915,
                0.45898061990737915
            ],
            "translation" : [
                -4.843829154968262,
                22.490615844726562,
                3.007998466491699
            ]
        }
    ],
    "materials" : [
        {
            "doubleSided" : true,
            "name" : "Material.012",
            "pbrMetallicRoughness" : {
                "baseColorFactor" : [
                    0.07846125215291977,
                    0.07846125215291977,
                    0.07846125215291977,
                    1
                ],
                "metallicFactor" : 0,
                "roughnessFactor" : 0.5
            }
        },
        {
            "doubleSided" : true,
            "name" : "Material",
            "pbrMetallicRoughness" : {
                "baseColorFactor" : [
                    1,
                    0.27280953526496887,
                    0.008676736615598202,
                    1
                ],
                "metallicFactor" : 0,
                "roughnessFactor" : 0.5
            }
        }
    ],
    "meshes" : [
        {
            "name" : "Cube.022",
            "primitives" : [
                {
                    "attributes" : {
                        "POSITION" : 0,
                        "NORMAL" : 1,
                        "TEXCOORD_0" : 2
                    },
                    "indices" : 3,
                    "material" : 0
                }
            ]
        },
        {
            "name" : "NurbsPath.001",
            "primitives" : [
                {
                    "attributes" : {
                        "POSITION" : 4,
                        "NORMAL" : 5,
                        "TEXCOORD_0" : 6
                    },
                    "indices" : 7,
                    "material" : 1
                }
            ]
        },
        {
            "name" : "NurbsPath.003",
            "primitives" : [
                {
                    "attributes" : {
                        "POSITION" : 8,
                        "NORMAL" : 9,
                        "TEXCOORD_0" : 10
                    },
                    "indices" : 11,
                    "material" : 1
                }
            ]
        },
        {
            "name" : "Sphere.002",
            "primitives" : [
                {
                    "attributes" : {
                        "POSITION" : 12,
                        "NORMAL" : 13,
                        "TEXCOORD_0" : 14
                    },
                    "indices" : 15,
                    "material" : 1
                }
            ]
        }
    ],
    "accessors" : [
        {
            "bufferView" : 0,
            "componentType" : 5126,
            "count" : 16678,
            "max" : [
                1.0000001192092896,
                0.13560673594474792,
                1.0000001192092896
            ],
            "min" : [
                -1.0000001192092896,
                -4.109890937805176,
                -1.0000001192092896
            ],
            "type" : "VEC3"
        },
        {
            "bufferView" : 1,
            "componentType" : 5126,
            "count" : 16678,
            "type" : "VEC3"
        },
        {
            "bufferView" : 2,
            "componentType" : 5126,
            "count" : 16678,
            "type" : "VEC2"
        },
        {
            "bufferView" : 3,
            "componentType" : 5123,
            "count" : 93696,
            "type" : "SCALAR"
        },
        {
            "bufferView" : 4,
            "componentType" : 5126,
            "count" : 1092,
            "max" : [
                1.1460644006729126,
                0.6039079427719116,
                0.020000124350190163
            ],
            "min" : [
                -0.024531342089176178,
                1.1383493614403051e-07,
                -0.019999954849481583
            ],
            "type" : "VEC3"
        },
        {
            "bufferView" : 5,
            "componentType" : 5126,
            "count" : 1092,
            "type" : "VEC3"
        },
        {
            "bufferView" : 6,
            "componentType" : 5126,
            "count" : 1092,
            "type" : "VEC2"
        },
        {
            "bufferView" : 7,
            "componentType" : 5123,
            "count" : 5976,
            "type" : "SCALAR"
        },
        {
            "bufferView" : 8,
            "componentType" : 5126,
            "count" : 5364,
            "max" : [
                1.0159152746200562,
                0.19191715121269226,
                0.22304706275463104
            ],
            "min" : [
                0.0657568871974945,
                -0.4708268344402313,
                -0.22304664552211761
            ],
            "type" : "VEC3"
        },
        {
            "bufferView" : 9,
            "componentType" : 5126,
            "count" : 5364,
            "type" : "VEC3"
        },
        {
            "bufferView" : 10,
            "componentType" : 5126,
            "count" : 5364,
            "type" : "VEC2"
        },
        {
            "bufferView" : 11,
            "componentType" : 5123,
            "count" : 30240,
            "type" : "SCALAR"
        },
        {
            "bufferView" : 12,
            "componentType" : 5126,
            "count" : 559,
            "max" : [
                0.9999997019767761,
                1,
                0.9999994039535522
            ],
            "min" : [
                -0.9999990463256836,
                -1,
                -0.9999987483024597
            ],
            "type" : "VEC3"
        },
        {
            "bufferView" : 13,
            "componentType" : 5126,
            "count" : 559,
            "type" : "VEC3"
        },
        {
            "bufferView" : 14,
            "componentType" : 5126,
            "count" : 559,
            "type" : "VEC2"
        },
        {
            "bufferView" : 15,
            "componentType" : 5123,
            "count" : 2880,
            "type" : "SCALAR"
        }
    ],
    "bufferViews" : [
        {
            "buffer" : 0,
            "byteLength" : 200136,
            "byteOffset" : 0
        },
        {
            "buffer" : 0,
            "byteLength" : 200136,
            "byteOffset" : 200136
        },
        {
            "buffer" : 0,
            "byteLength" : 133424,
            "byteOffset" : 400272
        },
        {
            "buffer" : 0,
            "byteLength" : 187392,
            "byteOffset" : 533696
        },
        {
            "buffer" : 0,
            "byteLength" : 13104,
            "byteOffset" : 721088
        },
        {
            "buffer" : 0,
            "byteLength" : 13104,
            "byteOffset" : 734192
        },
        {
            "buffer" : 0,
            "byteLength" : 8736,
            "byteOffset" : 747296
        },
        {
            "buffer" : 0,
            "byteLength" : 11952,
            "byteOffset" : 756032
        },
        {
            "buffer" : 0,
            "byteLength" : 64368,
            "byteOffset" : 767984
        },
        {
            "buffer" : 0,
            "byteLength" : 64368,
            "byteOffset" : 832352
        },
        {
            "buffer" : 0,
            "byteLength" : 42912,
            "byteOffset" : 896720
        },
        {
            "buffer" : 0,
            "byteLength" : 60480,
            "byteOffset" : 939632
        },
        {
            "buffer" : 0,
            "byteLength" : 6708,
            "byteOffset" : 1000112
        },
        {
            "buffer" : 0,
            "byteLength" : 6708,
            "byteOffset" : 1006820
        },
        {
            "buffer" : 0,
            "byteLength" : 4472,
            "byteOffset" : 1013528
        },
        {
            "buffer" : 0,
            "byteLength" : 5760,
            "byteOffset" : 1018000
        }
    ],
    "buffers" : [
        {
            "byteLength" : 1023760,
            "uri" : "data:application/octet-stream;base64,"
        }
    ]
}
